<?xml version="1.0" encoding="UTF-8" standalone="no"?>
<!DOCTYPE svg PUBLIC "-//W3C//DTD SVG 1.1//EN" "http://www.w3.org/Graphics/SVG/1.1/DTD/svg11.dtd">
<svg width="100%" height="100%" viewBox="0 0 1176 1349" version="1.1" xmlns="http://www.w3.org/2000/svg" xmlns:xlink="http://www.w3.org/1999/xlink" xml:space="preserve" xmlns:serif="http://www.serif.com/" style="fill-rule:evenodd;clip-rule:evenodd;stroke-linejoin:round;stroke-miterlimit:2;">
    <g transform="matrix(1,0,0,1,-2868.770363,-1079.957152)">
        <g>
            <g transform="matrix(8.988084,0,0,8.988084,2697.533502,1049.191091)">
                <path d="M109.493,138.489C108.925,138.831 102.252,142.433 94.798,146.998C92.778,148.235 85.934,152.046 85.403,152.221C83.933,152.703 81.893,151.444 81.628,151.281C80.496,150.582 80.427,150.72 67.272,142.886C59.83,138.454 59.42,138.542 57.618,137.317C51.83,133.378 43.42,129.28 40.605,127.341C37.295,125.059 21.703,116.707 20.789,115.305C19.857,113.872 20.348,113.703 20.281,77.5C20.217,42.489 20.466,42.504 20.469,42.492C21.055,40.282 25.32,38.952 29.347,36.246C30.452,35.504 30.488,35.581 43.631,27.725C45.953,26.337 55.108,21.321 58.313,19.198C59.481,18.425 59.495,18.453 73.419,10.357C81.025,5.935 83.213,4.552 84.497,4.582C86.659,4.634 100.039,13.099 101.75,14.058C102.486,14.47 107.655,17.245 108.358,17.715C112.372,20.4 123.81,26.675 130.358,30.736C132.861,32.288 135.32,33.379 137.341,34.75C142.066,37.955 147.959,40.198 148.547,42.487C148.905,43.877 148.557,84.415 148.712,112.501C148.732,116.192 147.684,115.915 142.341,119.237C140.562,120.342 129.995,126.309 127.705,127.821C126.195,128.819 115.617,134.545 109.493,138.489Z" style="fill:rgb(27,22,52);stroke:rgb(142,63,214);stroke-width:2.32px;"/>
            </g>
            <g transform="matrix(8.988084,0,0,8.988084,2697.533502,1049.191091)">
                <path d="M46.243,56.324C46.98,55.706 46.908,55.612 48.595,54.661C51.079,53.262 51.076,53.269 51.292,53.146C62.815,46.605 62.724,46.459 63.726,45.891C80.206,36.552 80.119,36.414 81.565,35.626C83.944,34.33 84.331,33.631 88.624,36.304C90.889,37.715 90.963,37.544 93.242,38.942C102.612,44.689 102.792,44.356 112.247,49.957C122.14,55.818 122.296,55.669 122.699,56.4C122.9,56.765 122.997,57.18 123.198,57.544C122.979,57.631 122.719,57.563 122.5,57.65C120.462,58.459 117.095,60.479 116.641,60.752C110.01,64.731 100.976,69.798 99.649,70.713C97.801,71.988 85.802,78.887 85.732,78.928C85.142,79.276 85.106,79.151 84.463,79.381C79.532,76.6 77.565,75.703 73.649,73.274C70.678,71.431 70.569,71.628 68.642,70.287C68.341,70.077 54.024,61.811 51.643,60.284C51.456,60.164 50.18,59.345 49.242,58.892C47.115,57.863 47.397,57.507 46.243,56.324Z" style="fill:rgb(142,63,214);"/>
            </g>
            <g transform="matrix(8.988084,0,0,8.988084,2697.533502,1049.191091)">
                <path d="M123.198,57.544C123.722,59.348 123.74,59.332 123.764,59.492C123.965,60.839 123.873,77.9 123.864,79.5C123.816,88.512 123.843,88.5 123.891,97.507C123.917,102.337 122.138,101.998 111.339,108.231C104.413,112.229 104.413,112.228 104.347,112.269C96.017,117.578 95.752,117.106 89.699,120.812C85.888,123.145 84.92,122.912 84.621,122.986L84.836,121.5C84.774,121.142 84.465,120.858 84.404,120.5C84.348,120.17 84.496,119.834 84.494,119.499C84.491,119.165 84.414,118.835 84.389,118.502C84.239,116.548 84.384,116.55 84.34,104.498C84.319,98.755 84.48,98.769 84.482,93.5C84.486,83.378 84.35,83.394 84.358,82.515C84.361,82.173 84.477,81.838 84.48,81.496C84.475,80.791 84.469,80.086 84.463,79.381C85.106,79.151 85.142,79.276 85.732,78.928C85.802,78.887 97.801,71.988 99.649,70.713C100.976,69.798 110.01,64.731 116.641,60.752C117.095,60.479 120.462,58.459 122.5,57.65C122.719,57.563 122.979,57.631 123.198,57.544Z" style="fill:rgb(74,6,179);"/>
            </g>
            <g transform="matrix(8.988084,0,0,8.988084,2697.533502,1049.191091)">
                <path d="M46.243,56.324C47.397,57.507 47.115,57.863 49.242,58.892C50.18,59.345 51.456,60.164 51.643,60.284C54.024,61.811 68.341,70.077 68.642,70.287C70.569,71.628 70.678,71.431 73.649,73.274C77.565,75.703 79.532,76.6 84.463,79.381C84.469,80.086 84.475,80.791 84.48,81.496C84.477,81.838 84.361,82.173 84.358,82.515C84.35,83.394 84.486,83.378 84.482,93.5C84.48,98.769 84.319,98.755 84.34,104.498C84.384,116.55 84.239,116.548 84.389,118.502C84.414,118.835 84.491,119.165 84.494,119.499C84.496,119.834 84.348,120.17 84.404,120.5C84.465,120.858 84.774,121.142 84.836,121.5L84.621,122.986C83.205,122.703 83.116,122.964 81.295,121.87C74.537,117.807 74.265,118.138 73.144,116.737C72.611,116.07 72.517,115.981 72.577,99.485C72.522,96.745 72.805,87.533 72.43,85.525C72.117,83.843 71.054,83.051 59.532,76.436C57.951,75.528 57.545,75.008 56.504,76.502C56.154,77.005 56.231,80.175 56.239,80.495C56.468,89.895 56.075,103.885 56.436,104.464C56.749,104.966 57.394,105.201 57.707,105.703C56.645,106.311 56.741,106.627 55.504,106.573C54.812,106.543 52.837,105.378 52.618,105.249C47.974,102.509 47.587,102.23 47.174,101.931C44.909,100.295 45.151,99.848 45.167,91.499C45.223,62.959 45.246,62.972 45.249,60.492C45.254,57.042 46.057,56.666 46.243,56.324Z" style="fill:rgb(98,24,203);"/>
            </g>
            <g transform="matrix(8.988084,0,0,8.988084,2697.533502,1049.191091)">
                <path d="M72.577,99.485C70.762,99.13 70.776,99.064 70.621,99.102C70.526,99.125 70.564,99.169 69.555,99.7C65.005,102.096 65.131,102.281 60.655,104.779C58.614,105.917 58.468,105.557 57.707,105.703C57.394,105.201 56.749,104.966 56.436,104.464C56.075,103.885 56.468,89.895 56.239,80.495C56.231,80.175 56.154,77.005 56.504,76.502C57.545,75.008 57.951,75.528 59.532,76.436C71.054,83.051 72.117,83.843 72.43,85.525C72.805,87.533 72.522,96.745 72.577,99.485Z" style="fill:rgb(56,17,120);"/>
            </g>
            <g transform="matrix(8.988084,0,0,8.988084,2697.533502,1049.191091)">
                <path d="M84.515,46.452C88.565,47.699 88.267,48.319 92.503,50.495C93.663,51.091 94.575,51.921 94.797,52.058C100.679,55.675 100.854,55.362 101.311,55.749C101.429,55.848 101.547,57.194 101.421,57.436C101.314,57.642 98.703,58.994 98.324,59.235C95.449,61.064 91.381,63.067 88.649,64.755C84.74,67.17 83.994,66.488 83.493,66.579C84.182,65.139 84.491,65.199 84.392,63.492C84.313,62.114 84.473,59.484 84.414,56.505C84.268,49.098 84.687,49.11 84.654,48.468C84.637,48.133 84.401,47.835 84.378,47.5C84.353,47.149 84.539,46.803 84.515,46.452Z" style="fill:rgb(98,22,199);"/>
            </g>
            <g transform="matrix(8.988084,0,0,8.988084,2697.533502,1049.191091)">
                <path d="M84.515,46.452C84.539,46.803 84.353,47.149 84.378,47.5C84.401,47.835 84.637,48.133 84.654,48.468C84.687,49.11 84.268,49.098 84.414,56.505C84.473,59.484 84.313,62.114 84.392,63.492C84.491,65.199 84.182,65.139 83.493,66.579C80.924,65.173 80.938,65.186 80.718,65.061C69.665,58.763 69.637,58.829 68.701,58.24C66.944,57.135 67.762,56.003 67.881,55.838C67.941,55.755 73.55,52.448 74.647,51.709C77.623,49.701 77.708,49.868 80.779,47.992C84.294,45.844 84.494,46.456 84.515,46.452Z" style="fill:rgb(59,16,122);"/>
            </g>
        </g>
    </g>
</svg>
